<mxfile host="Electron" modified="2024-04-16T17:54:57.706Z" agent="Mozilla/5.0 (Macintosh; Intel Mac OS X 10_15_7) AppleWebKit/537.36 (KHTML, like Gecko) draw.io/23.1.5 Chrome/120.0.6099.109 Electron/28.1.0 Safari/537.36" etag="-bgKMYLLYqjdSWg30ULc" version="23.1.5" type="device">
  <diagram name="Page-1" id="IkTIo2W84xr3qizVQh_Z">
    <mxGraphModel dx="1793" dy="998" grid="1" gridSize="10" guides="1" tooltips="1" connect="1" arrows="1" fold="1" page="1" pageScale="1" pageWidth="900" pageHeight="900" math="0" shadow="0">
      <root>
        <mxCell id="0" />
        <mxCell id="1" parent="0" />
        <mxCell id="Ci-mhQPUg_75TSeiISrQ-7" value="&lt;span style=&quot;font-size: 200px;&quot;&gt;veScale&lt;/span&gt;" style="text;html=1;align=center;verticalAlign=middle;whiteSpace=wrap;rounded=0;strokeWidth=3;fontSize=200;fontFamily=Helvetica;fontStyle=1;fontColor=#999999;" parent="1" vertex="1">
          <mxGeometry y="638" width="900" height="138.46" as="geometry" />
        </mxCell>
        <mxCell id="8r3otrFNRt9jlW3HVY6C-1" value="" style="shape=trapezoid;perimeter=trapezoidPerimeter;whiteSpace=wrap;html=1;fixedSize=1;size=197.9961538461539;strokeWidth=20;strokeColor=none;fontColor=#3399FF;fillColor=#01e5e6;fontSize=28;rounded=1;shadow=0;arcSize=50;" parent="1" vertex="1">
          <mxGeometry x="127" y="378" width="250" height="200" as="geometry" />
        </mxCell>
        <mxCell id="8r3otrFNRt9jlW3HVY6C-2" value="" style="shape=trapezoid;perimeter=trapezoidPerimeter;whiteSpace=wrap;html=1;fixedSize=1;size=197.9961538461539;strokeWidth=20;strokeColor=none;fontColor=#3399FF;fillColor=#0073F7;fontSize=28;rounded=1;shadow=0;arcSize=50;" parent="1" vertex="1">
          <mxGeometry x="252" y="278" width="250" height="300" as="geometry" />
        </mxCell>
        <mxCell id="8r3otrFNRt9jlW3HVY6C-3" value="" style="shape=trapezoid;perimeter=trapezoidPerimeter;whiteSpace=wrap;html=1;fixedSize=1;size=197.9961538461539;strokeWidth=20;strokeColor=none;fontColor=#3399FF;fillColor=#01e5e6;fontSize=28;rounded=1;shadow=0;arcSize=50;" parent="1" vertex="1">
          <mxGeometry x="377" y="178" width="250" height="400" as="geometry" />
        </mxCell>
        <mxCell id="8r3otrFNRt9jlW3HVY6C-4" value="" style="shape=trapezoid;perimeter=trapezoidPerimeter;whiteSpace=wrap;html=1;fixedSize=1;size=197.9961538461539;strokeWidth=20;strokeColor=none;fontColor=#3399FF;fillColor=#0073F7;fontSize=28;rounded=1;shadow=0;arcSize=50;" parent="1" vertex="1">
          <mxGeometry x="503" y="78" width="250" height="500" as="geometry" />
        </mxCell>
      </root>
    </mxGraphModel>
  </diagram>
</mxfile>
